<svg xmlns="http://www.w3.org/2000/svg" xmlns:xlink="http://www.w3.org/1999/xlink" width="500" height="386" fill="none" xmlns:v="https://vecta.io/nano"><g clip-path="url(#A)"><path d="M479.234 337.743c-1.975-15.967-11.909-31.694-27.11-36.836 5.985 16.444 5.985 34.444 0 50.828-2.334 6.339-5.625 13.096-3.411 19.495 1.377 3.946 4.728 6.996 8.438 8.91 3.771 1.913 7.9 2.81 12.029 3.707l.778.658c6.583-14.77 11.311-30.856 9.276-46.762z" fill="#aabcc5"/><g fill="#fff"><path d="M452.005 301.146a63.27 63.27 0 0 1 15.739 35.64c.359 2.87.239 5.74-.299 8.551-.599 2.751-1.975 5.202-3.89 7.236-1.736 1.913-3.77 3.707-5.027 6.039-1.257 2.392-1.436 5.262-.479 7.834 1.137 3.169 3.291 5.741 5.506 8.192 2.453 2.751 5.087 5.502 6.104 9.149.12.419.778.24.658-.239-1.855-6.279-7.959-9.867-10.832-15.547-1.376-2.632-1.915-5.741-.658-8.492 1.137-2.452 3.172-4.246 4.967-6.219a17.04 17.04 0 0 0 4.07-6.936c.718-2.751.897-5.622.658-8.492-.479-6.398-2.035-12.737-4.488-18.657a62.89 62.89 0 0 0-11.61-18.538c-.24-.358-.718.18-.419.479z"/><path d="M467.564 332.48a9.46 9.46 0 0 0 7.242-9.926c-.06-.479-.719-.419-.719.059.359 4.306-2.513 8.253-6.762 9.269-.419.06-.18.718.239.598zm-2.992 19.255a18.27 18.27 0 0 1-8.199-10.524c-.119-.419-.778-.239-.658.239 1.377 4.605 4.429 8.491 8.558 10.943.359.18.658-.418.299-.658zm-3.95-38.689c-1.615.777-3.53.657-5.086-.24-.419-.239-.718.419-.3.658 1.736 1.017 3.83 1.136 5.626.299.179-.06.299-.239.239-.418-.06-.24-.299-.359-.479-.299z"/></g><path d="M405.745 329.371c.239.179.479.299.718.478 3.232 2.093 6.224 4.485 9.037 7.056.239.18.419.419.658.598 6.762 6.339 12.208 13.874 16.218 22.186 1.556 3.289 2.932 6.757 3.95 10.285 1.496 4.844 2.693 10.226 5.565 14.232.299.419.599.837.958 1.196h26.211c.06 0 .12-.06.18-.06l1.077.06c-.06-.179-.06-.359-.12-.538 0-.12-.059-.239-.059-.299s-.06-.12-.06-.18v-.059c0-.06-.06-.12-.06-.18-.239-1.076-.539-2.153-.838-3.229-2.154-8.133-5.027-16.205-8.977-23.561a6.29 6.29 0 0 0-.359-.657c-1.795-3.289-3.889-6.459-6.223-9.449-1.257-1.614-2.634-3.169-4.07-4.664-3.71-3.827-8.019-7.056-12.747-9.508-9.395-4.963-20.287-6.877-30.341-3.827-.239-.06-.479 0-.718.12z" fill="#aabcc5"/><g fill="#fff"><path d="M405.805 329.67c13.046 2.571 24.955 9.209 34.051 18.956 1.975 2.033 3.651 4.425 4.908 6.996 1.137 2.572 1.556 5.382 1.256 8.133-.239 2.571-.778 5.202-.419 7.834.419 2.69 2.035 5.082 4.309 6.518 2.813 1.853 6.104 2.631 9.336 3.229 3.591.717 7.361 1.375 10.413 3.588.359.299.778-.299.419-.598-5.266-3.947-12.268-3.11-18.013-5.861-2.693-1.315-4.967-3.408-5.626-6.398-.598-2.631 0-5.322.24-7.953.359-2.691 0-5.442-.958-8.013-1.137-2.631-2.693-5.083-4.608-7.176-4.249-4.844-9.276-8.91-14.841-12.199-6.344-3.767-13.226-6.398-20.467-7.834-.419 0-.419.718 0 .778z"/><path d="M437.104 345.337c2.932-3.588 2.872-8.79-.24-12.319-.299-.358-.838.12-.538.479a8.79 8.79 0 0 1 .179 11.421c-.299.359.299.778.599.419zm9.216 17.162c-4.608.479-9.157-.777-12.867-3.468-.359-.299-.778.299-.419.598 3.83 2.87 8.678 4.126 13.405 3.588.419-.06.299-.778-.119-.718zm-26.452-28.524c-.837 1.615-2.453 2.691-4.249 2.871-.478.059-.299.717.12.717 1.975-.239 3.77-1.375 4.668-3.169.12-.18.06-.359-.06-.479-.179-.119-.359-.059-.479.06z"/></g><path d="M363.495 57.407L50.449.06c-.658-.12-1.316-.12-1.915 0s-1.137.359-1.556.718c-.479.359-.838.837-1.077 1.316-.239.538-.419 1.196-.419 1.794v280.216c0 .598.12 1.256.419 1.794.239.538.598.957 1.077 1.316s1.017.598 1.556.717c.658.12 1.317.12 1.915 0l313.046-57.107c.239-.06.479-.18.718-.359s.419-.419.539-.718c.179-.299.299-.658.359-.957.119-.358.119-.777.119-1.136V60.576c0-.359-.059-.777-.119-1.136s-.24-.658-.359-.957-.359-.538-.539-.717-.419-.299-.718-.359z" fill="#aabcc5"/><path d="M368.282 57.407L55.236.06c-.658-.12-1.317-.12-1.915 0s-1.137.359-1.556.718a3.74 3.74 0 0 0-1.077 1.316c-.239.538-.419 1.196-.419 1.794v280.216c0 .598.12 1.256.419 1.794.239.538.599.957 1.077 1.316s1.017.598 1.556.717c.658.12 1.317.12 1.915 0l313.046-57.107c.24-.06.479-.18.719-.359s.419-.419.538-.718c.18-.299.299-.658.359-.957.12-.358.12-.777.12-1.136V60.576c0-.359-.06-.777-.12-1.136s-.239-.658-.359-.957-.359-.538-.538-.717-.419-.299-.719-.359z" fill="#fff"/><g fill="#aabcc5"><path d="M368.282 57.407L55.236.06c-.658-.12-1.317-.12-1.915 0s-1.137.359-1.556.718a3.74 3.74 0 0 0-1.077 1.316c-.239.538-.419 1.196-.419 1.794v280.216c0 .598.12 1.256.419 1.794.239.538.599.957 1.077 1.316a4.06 4.06 0 0 0 1.556.717c.658.12 1.317.12 1.915 0l313.046-57.107c.24-.06.479-.18.719-.359a1.62 1.62 0 0 0 .538-.718c.18-.299.299-.658.359-.957.12-.358.12-.777.12-1.136V60.576c0-.359-.06-.777-.12-1.136s-.239-.658-.359-.957-.359-.538-.538-.717-.419-.299-.719-.359zm1.197 170.306c0 .239-.059.538-.119.777a2.91 2.91 0 0 1-.24.658c-.119.18-.239.359-.359.479s-.299.179-.479.239L55.236 286.495a4.41 4.41 0 0 1-1.257 0c-.359-.06-.718-.239-1.077-.478a2.64 2.64 0 0 1-.718-.897c-.179-.359-.239-.778-.239-1.196V4.246c0-.419.06-.837.239-1.196a2.64 2.64 0 0 1 .718-.897l1.077-.478a2.24 2.24 0 0 1 1.257 0l313.046 56.689c.18.06.36.12.479.239a.93.93 0 0 1 .359.478c.12.179.18.419.24.658s.119.478.119.777v167.197zM0 87.485a13.66 13.66 0 0 1 1.197-5.561 10.93 10.93 0 0 1 3.232-4.126c1.376-1.136 2.992-1.914 4.728-2.332 1.855-.478 3.83-.538 5.685-.179 1.975.359 3.89 1.076 5.625 2.093s3.232 2.332 4.548 3.827a19.45 19.45 0 0 1 3.052 5.023 15.45 15.45 0 0 1 1.077 5.681c0 1.854-.359 3.648-1.077 5.382-.718 1.555-1.736 2.99-3.052 4.067a12.01 12.01 0 0 1-4.548 2.451 12.76 12.76 0 0 1-5.625.359c-1.975-.299-3.95-.897-5.685-1.913-1.795-.957-3.351-2.273-4.728-3.768s-2.454-3.229-3.232-5.143A15.09 15.09 0 0 1 0 87.485zm0 58.005a13.66 13.66 0 0 1 1.197-5.561c.718-1.615 1.855-3.05 3.232-4.126 1.376-1.137 2.992-1.914 4.728-2.333a13.05 13.05 0 0 1 5.685-.179c1.975.359 3.89 1.076 5.625 2.093s3.232 2.332 4.548 3.827c1.257 1.495 2.274 3.169 3.052 5.023a15.45 15.45 0 0 1 1.077 5.681c0 1.854-.359 3.648-1.077 5.382-.718 1.555-1.736 2.99-3.052 4.066a12.02 12.02 0 0 1-4.548 2.452 12.78 12.78 0 0 1-5.625.359c-1.975-.299-3.95-.897-5.685-1.914-1.795-.957-3.351-2.272-4.728-3.767s-2.454-3.229-3.232-5.143C.419 149.497 0 147.523 0 145.49zm0 58.005c0-1.914.419-3.827 1.197-5.562a10.94 10.94 0 0 1 3.232-4.126c1.376-1.136 2.992-1.913 4.728-2.332a13.05 13.05 0 0 1 5.685-.179c1.975.359 3.89 1.076 5.625 2.093s3.232 2.332 4.548 3.827c1.257 1.495 2.274 3.169 3.052 5.023a15.45 15.45 0 0 1 1.077 5.681 13.94 13.94 0 0 1-1.077 5.382c-.718 1.554-1.736 2.99-3.052 4.066-1.317 1.136-2.873 1.973-4.548 2.452a12.78 12.78 0 0 1-5.625.358c-1.975-.299-3.95-.897-5.685-1.913-1.795-.957-3.351-2.272-4.728-3.767s-2.454-3.23-3.232-5.143A15.09 15.09 0 0 1 0 203.495z"/></g><g fill="#17a550"><path d="M3.591 87.485a13.66 13.66 0 0 1 1.197-5.561 10.93 10.93 0 0 1 3.232-4.126c1.376-1.136 2.992-1.914 4.728-2.332 1.855-.478 3.83-.538 5.685-.179 1.975.359 3.89 1.076 5.625 2.093s3.232 2.332 4.548 3.827c1.257 1.495 2.274 3.169 3.052 5.023a15.45 15.45 0 0 1 1.077 5.681c0 1.854-.359 3.648-1.077 5.382-.718 1.555-1.735 2.99-3.052 4.067a12.01 12.01 0 0 1-4.548 2.451 12.76 12.76 0 0 1-5.625.359c-1.975-.299-3.95-.897-5.685-1.913-1.795-.957-3.351-2.273-4.728-3.768s-2.454-3.229-3.232-5.143a15.09 15.09 0 0 1-1.197-5.86zm0 57.586c0-1.913.419-3.886 1.197-5.621.778-1.674 1.855-3.169 3.232-4.365s2.992-2.153 4.728-2.691c1.855-.598 3.77-.777 5.685-.598 1.975.18 3.89.778 5.625 1.674a18.33 18.33 0 0 1 4.548 3.469 16.7 16.7 0 0 1 3.052 4.784 15.14 15.14 0 0 1 1.077 5.621 14.23 14.23 0 0 1-1.077 5.441 13.17 13.17 0 0 1-7.54 7.116c-1.795.658-3.71.897-5.625.778-1.975-.12-3.89-.598-5.685-1.495-3.591-1.734-6.403-4.664-7.959-8.312-.838-1.794-1.257-3.827-1.257-5.801zm0 57.586c0-3.886 1.556-7.654 4.428-10.345 5.805-5.561 15.081-5.382 20.646.479 1.257 1.315 2.214 2.81 2.932 4.485 3.052 7.355-.479 15.786-7.84 18.836-1.676.718-3.531 1.077-5.326 1.077-5.925.059-11.251-3.349-13.645-8.791a14.51 14.51 0 0 1-1.197-5.741z"/></g><g fill="#fff"><path d="M12.627 87.426l4.369.658v-4.305c0-.179.06-.359.12-.538s.18-.299.299-.419.299-.179.479-.239a.83.83 0 0 1 .539 0l.539.179c.18.12.299.239.479.359.12.12.239.299.299.478s.12.359.12.598v4.246l4.249.658.539.179c.359.179.598.478.778.837.06.179.12.359.12.538s-.06.359-.12.538-.18.299-.299.419-.299.179-.419.239a.83.83 0 0 1-.539 0l-4.249-.658v4.246c0 .179-.06.359-.12.538s-.179.299-.299.419-.299.179-.479.239-.359.06-.539.06-.359-.12-.539-.179c-.179-.12-.299-.239-.479-.359-.12-.12-.239-.299-.299-.478s-.12-.359-.12-.598v-4.186l-4.369-.658-.539-.179c-.18-.12-.359-.239-.479-.359s-.239-.299-.299-.478-.12-.359-.12-.598c0-.179.06-.359.12-.538s.18-.299.299-.419.299-.179.479-.239c.12-.06.299-.06.479 0zm3.052 62.609l12.089.897h.06l-5.685-10.286c-.06-.059-.06-.119-.12-.179-.06 0-.06-.06-.12-.06h-.12-.12c-.06 0-.06 0-.12.06s-.12.06-.12.12l-3.83 6.338-.18.299-1.735 2.811z"/><path d="M8.797 149.556l10.652.778-2.035-3.11-.12-.239-2.693-4.066-.18-.18c-.06 0-.06-.06-.12-.06h-.12-.12-.12c-.06 0-.06 0-.12.06-.06 0-.06.06-.06.06l-4.967 6.757zm8.079-10.584a1.6 1.6 0 0 1 .718.179 2.14 2.14 0 0 1 .598.419 1.24 1.24 0 0 1 .359.598c.12.239.12.478.12.718s-.06.478-.12.657l-.359.538c-.179.18-.359.24-.598.359-.239.06-.479.12-.718.06a1.6 1.6 0 0 1-.718-.179c-.239-.12-.419-.24-.599-.419s-.299-.359-.419-.598-.12-.478-.12-.717.06-.479.12-.658c.12-.18.239-.359.419-.538s.359-.24.599-.359c.239-.06.479-.06.718-.06z"/></g><g fill="#aabcc5"><path d="M147.098 179.874L266.607 66.556l.538.897-119.329 113.378-.718-.957z"/><path d="M147.098 51.487l.778-.897 119.21 123.663-.539.837L147.098 51.487z"/><path d="M265.35 64.941L149.192 49.035c-.539-.06-1.077-.06-1.616.12-.478.179-.957.419-1.316.777s-.659.837-.898 1.316c-.239.538-.359 1.136-.299 1.734v124.919c0 .598.12 1.196.299 1.734s.479 1.017.898 1.375c.359.359.838.718 1.316.897s1.077.299 1.616.24l116.158-6.339c.419 0 .778-.12 1.077-.359.359-.239.659-.538.898-.837.239-.359.479-.777.598-1.196.12-.478.24-.957.24-1.435V69.127c0-.478-.06-1.017-.24-1.495-.119-.478-.359-.897-.598-1.256a3.2 3.2 0 0 0-.898-.897c-.299-.299-.658-.478-1.077-.538zm-116.158 116.01c-.419 0-.778-.06-1.137-.18s-.658-.359-.957-.658-.479-.598-.659-1.016a3.13 3.13 0 0 1-.239-1.256V53.101a3.13 3.13 0 0 1 .239-1.256c.12-.359.359-.658.659-.957.239-.239.598-.478.957-.538.359-.12.778-.179 1.137-.12L265.35 65.958c.299.06.539.179.778.299a3.42 3.42 0 0 1 .658.658c.18.299.359.598.419.897a3.38 3.38 0 0 1 .18 1.076v103.033a3.37 3.37 0 0 1-.18 1.076c-.119.299-.239.598-.419.897-.179.24-.419.419-.658.598-.239.12-.539.24-.778.24l-116.158 6.219zm-3.83 14.471c-.299.06-.598.119-.838.359-.299.179-.538.478-.718.777s-.359.658-.479 1.076a4.58 4.58 0 0 0-.179 1.256c0 .419.06.778.179 1.196.12.359.24.658.479.957.18.239.419.478.658.598s.539.179.838.179l203.351-16.803a.54.54 0 0 0 .419-.18c.12-.119.24-.299.36-.478.119-.239.179-.478.239-.717.06-.299.12-.598.12-.897s0-.598-.06-.838-.12-.478-.24-.717a.93.93 0 0 0-.359-.479.65.65 0 0 0-.419-.179h-.06l-203.291 14.89z"/><path d="M145.362 214.557c-.299.06-.598.18-.838.359-.299.239-.538.479-.718.778l-.479 1.076c-.119.419-.179.837-.179 1.256s.06.777.179 1.196c.12.358.24.657.479.956.18.24.419.479.658.598a1.91 1.91 0 0 0 .838.18l203.351-22.425c.18 0 .3-.119.419-.179.12-.12.24-.299.36-.478.119-.24.179-.479.239-.718.06-.299.12-.598.12-.897s0-.598-.06-.837-.12-.479-.24-.718c-.06-.179-.179-.359-.359-.478-.119-.12-.299-.18-.419-.12h-.06l-203.291 20.451z"/><path d="M145.362 233.394a2.1 2.1 0 0 0-.838.359c-.299.239-.538.478-.718.777l-.479 1.077a4.57 4.57 0 0 0-.179 1.255c0 .419.06.778.179 1.196.12.359.24.658.479.897.18.239.419.419.658.598.24.12.539.18.838.12l203.351-27.926c.18 0 .3-.12.419-.239s.24-.299.36-.539.179-.478.239-.717c.06-.299.12-.598.12-.897s0-.598-.06-.837-.12-.479-.24-.658c-.06-.179-.179-.299-.359-.419-.119-.119-.299-.119-.419-.119h-.06l-203.291 26.072z"/></g><g fill="#fff"><path d="M24.237 196.618l-11.61-.12c-.18 0-.359 0-.598.06-.18.06-.359.12-.479.239s-.299.239-.359.419c-.12.179-.179.359-.239.538-.06.239 0 .478.06.658.06.119.06.239.12.299.12.179.239.359.419.538.299.239.598.299.957.299l3.471.06c.359 0 .658.179.778.538a.65.65 0 0 1 .06.299v6.817c0 .359.12.718.359 1.017s.599.478.958.598a1.53 1.53 0 0 0 1.676-.897c.12-.18.12-.419.12-.658v-6.877c0-.478.359-.837.838-.837h3.351a1.67 1.67 0 0 0 1.616-1.256c.12-.837-.419-1.674-1.257-1.794-.12.06-.18.06-.239.06zm0 9.209c.838 0 1.556.717 1.556 1.555s-.718 1.554-1.556 1.554-1.556-.717-1.556-1.554c0-.18.06-.419.12-.598.239-.598.778-.957 1.436-.957z"/></g><path d="M296.29 115.172l-.24 1.256 24.177 28.942 9.037-1.554 4.129 13.335-15.739 4.305c-2.633.718-5.386-.359-6.822-2.691l-22.502-36.537c-4.428 0-8.019-3.528-8.019-7.953s3.531-8.013 7.96-8.013 8.019 3.528 8.019 7.953c.059.299.059.598 0 .957z" fill="#ffb6b6"/><path d="M321.305 143.696c.538-.837 1.376-1.435 2.393-1.555l16.996-2.691c5.027-1.554 10.353 1.196 11.909 6.219 1.556 4.964-1.197 10.286-6.164 11.9l-15.499 7.535c-1.676.837-3.771.12-4.608-1.555-.06-.179-.12-.299-.18-.478l-5.206-16.505c-.3-.956-.18-1.973.359-2.87z" fill="#536d7a"/><path d="M322.262 378.226h-7.361l-3.471-28.285h10.832v28.285z" fill="#ffb6b6"/><path d="M324.117 385.342h-23.638v-.299a9.22 9.22 0 0 1 9.216-9.209h14.422v9.508z" fill="#1d2f38"/><path d="M398.863 378.226h-7.361l-3.471-28.285h10.832v28.285z" fill="#ffb6b6"/><g fill="#1d2f38"><path d="M400.718 385.342H377.08v-.299a9.22 9.22 0 0 1 9.216-9.209h14.422v9.508zm-75.583-179.336l31.777-9.209c11.61 8.193 19.569 24.637 16.996 45.926-4.189 34.324 19.988 78.396 30.401 123.125l-18.013.538-39.438-94.302-23.16 96.335-16.098.479 10.772-132.634 6.763-30.258z"/></g><path d="M339.258 122.587c9.089 0 16.457-7.362 16.457-16.444s-7.368-16.445-16.457-16.445-16.457 7.362-16.457 16.445 7.368 16.444 16.457 16.444z" fill="#ffb6b6"/><path d="M322.561 179.216c-3.65-6.398-5.445-14.112-2.274-20.75.778-1.674 2.993-3.229 4.13-4.724l12.687-18.956 14.362-2.332c12.388 10.405 1.796 45.985 11.969 69.306l-42.489 22.724c2.992-11.541 7.121-35.58 1.615-45.268z" fill="#536d7a"/><path d="M322.741 99.565s1.137-2.033 7.78.598c2.334.956 3.411.717 3.59 2.75.539 7.595 3.352 14.89 8.02 20.93l.059.06 3.352-3.05 4.308 3.408 18.073.359s2.873-14.052-6.642-30.019-29.145-7.176-29.145-7.176c-13.345.777-9.395 12.139-9.395 12.139z" fill="#1d2f38"/><use xlink:href="#B" fill="#17a550"/><use xlink:href="#B" opacity=".2" fill="#000"/><path d="M285.518 78.516L169.36 62.609c-.539-.06-1.078-.06-1.616.12-.479.179-.958.419-1.317.777s-.658.837-.897 1.316c-.24.538-.359 1.136-.3 1.734v124.919c0 .598.12 1.196.3 1.734s.478 1.017.897 1.376c.359.358.838.717 1.317.897s1.077.299 1.616.239l116.158-6.399a1.67 1.67 0 0 0 1.077-.358c.359-.24.658-.539.898-.838.239-.358.478-.777.598-1.196.12-.478.239-.956.239-1.435V82.642c0-.478-.06-1.017-.239-1.495-.12-.478-.359-.897-.598-1.256s-.539-.658-.898-.897c-.299-.239-.658-.419-1.077-.478z" fill="#17a550"/><path d="M285.039 178.439l.898.897 37.582-3.827 3.77-8.372 13.345 4.007-5.206 15.428c-.898 2.571-3.351 4.245-6.044 4.126l-42.909-1.854c-2.453 3.648-7.421 4.664-11.071 2.153-3.651-2.452-4.668-7.415-2.154-11.063 2.453-3.648 7.42-4.664 11.071-2.153.179.239.479.419.718.658z" fill="#ffb6b6"/><path d="M322.741 173.715c-.419-.897-.419-1.973 0-2.87l7.241-15.548c1.496-5.023 6.762-7.893 11.849-6.398 5.027 1.495 7.9 6.757 6.404 11.78l-2.454 17.042c-.239 1.854-1.975 3.17-3.89 2.931-.18 0-.359-.06-.479-.12l-16.577-4.903c-.897-.299-1.735-1.017-2.094-1.914z" fill="#536d7a"/><path d="M499.402 386H271.394a.56.56 0 1 1 0-1.196h228.008a.56.56 0 0 1 .598.598.6.6 0 0 1-.598.598z" fill="#aabcc5"/></g><defs><clipPath id="A"><path fill="#fff" d="M0 0h500v386H0z"/></clipPath><path id="B" d="M280.73 78.516L164.572 62.609c-.538-.06-1.077-.06-1.616.12-.478.179-.957.419-1.316.777s-.659.837-.898 1.316c-.239.538-.359 1.136-.299 1.734v124.919c0 .598.12 1.196.299 1.734s.479 1.017.898 1.376c.359.358.838.717 1.316.897s1.078.299 1.616.239l116.158-6.399a1.67 1.67 0 0 0 1.077-.358c.359-.24.659-.539.898-.838.239-.358.479-.777.598-1.196.12-.478.24-.956.24-1.435V82.642c0-.478-.06-1.017-.24-1.495-.119-.478-.359-.897-.598-1.256a3.2 3.2 0 0 0-.898-.897c-.299-.239-.658-.419-1.077-.478z"/></defs></svg>