<svg xmlns="http://www.w3.org/2000/svg" width="500" height="325" fill="none" xmlns:v="https://vecta.io/nano"><g clip-path="url(#A)"><path d="M500 152.597c0 26.847-20.642 49.089-47.331 51.194-.46 0-.855.066-1.315.066v-48.694c0-.987-.46-1.908-1.183-2.566l-.132-.132-.131-.132c-.92-.592-2.104-.723-3.155-.263l-.526-1.184c.591-.263 1.249-.395 1.906-.395l-37.47-32.309c.263-.329.591-.658.92-.987 19.524-20.596 51.933-21.452 72.509-1.909C494.215 125.025 500 138.515 500 152.597z" fill="#e3ebf1"/><g fill="#ffb8b8"><path d="M13.016 187.604c-.723-3.619 1.643-7.107 5.259-7.765.394-.066.789-.132 1.183-.132l29.582-35.204 7.363 9.476-30.108 32.769c-.197 3.685-3.287 6.515-6.968 6.317-3.155-.197-5.785-2.434-6.311-5.461zm140.35-43.364c-.197.329-.395.592-.526.921l-32.277 4.606-4.931-6.251-10.386 6.185 9.729 15.201 39.377-11.647c2.827 2.566 7.165 2.369 9.729-.461s2.367-7.172-.46-9.739-7.166-2.369-9.729.461c-.198.263-.395.461-.526.724zM98.212 261.895l5.719 5.725 24.652-19.346-8.415-8.423-21.956 22.044z"/></g><path d="M109.65 283.873l-17.946-17.898 6.902-6.909 11.044 10.989a9.78 9.78 0 0 1 0 13.818z" fill="#1d2f38"/><path d="M67.841 316.511h8.086l3.813-31.124H67.841v31.124z" fill="#ffb8b8"/><g fill="#1d2f38"><path d="M91.441 324.013H66.132v-9.805h15.514a9.74 9.74 0 0 1 9.795 9.805zm-25.309-31.52l-9.203-67.776a84.75 84.75 0 0 1 1.315-30.73c1.906-8.094 4.404-13.687 7.56-16.648a3.73 3.73 0 0 1 1.775-.856l30.305-3.158c1.183-.132 2.367.46 2.958 1.513l.986 1.645c.132.198.198.395.263.658l6.377 19.873c.197.592.592 1.118 1.183 1.381 10.058 5.133 42.861 22.571 41.021 30.072-1.775 7.041-18.276 18.491-23.272 21.847-1.051.724-2.432.658-3.418 0l-8.349-5.725c-1.38-.987-1.775-2.895-.788-4.277.197-.263.46-.527.723-.724l5.719-4.211c1.052-.79 1.315-2.304.526-3.356-.263-.395-.658-.658-1.118-.856l-30.831-10.857c-1.249-.461-2.629.197-3.09 1.447-.066.198-.132.395-.132.593l-5.653 69.553c-.131 1.514-1.38 2.764-2.892 2.83l-8.809.46h-.132c-1.512-.065-2.827-1.184-3.024-2.698z"/></g><path d="M80.003 117.195c8.931 0 16.171-7.248 16.171-16.188S88.934 84.82 80.003 84.82s-16.171 7.247-16.171 16.187 7.24 16.188 16.171 16.188z" fill="#ffb8b8"/><g fill="#aabcc5"><path d="M64.949 174.509l-11.899-43.43.197-.131c.263-.198 25.901-17.109 55.877-3.488l.526.329-7.034 45.075a4.55 4.55 0 0 1-4.207 3.817l-28.99 1.118h-.197c-2.038 0-3.747-1.382-4.273-3.29z"/><path d="M52.59 159.374l-9.926-11.383a3.09 3.09 0 0 1-.066-3.949l10.321-12.765 7.954 2.171 4.207 14.74-7.691 10.989c-.526.79-1.446 1.25-2.367 1.316h-.197c-.789-.066-1.643-.461-2.235-1.119zm54.759-2.369c-.92-.065-1.84-.526-2.366-1.316L97.292 144.7l3.681-15.529 7.297-1.974 1.38.658 10.124 12.766c.92 1.184.92 2.829-.066 3.948l-9.926 11.384c-.592.658-1.446 1.052-2.301 1.052h-.132z"/></g><path d="M451.354 151.873c0 .132-.066.329-.131.461-.263.263-.658.329-.921.065l-2.235-1.908-37.47-32.309-105.049-90.545c-1.249-1.053-3.089-1.053-4.273 0L159.874 150.623l-1.249 1.118c-.066.066-.132.066-.132.132-.131.066-.197.066-.328.066s-.329-.066-.395-.198c-.263-.263-.197-.658.066-.921l.197-.131L300.421 26.65c1.709-1.513 4.273-1.513 6.048 0l105.048 90.611 39.574 34.151c.132.132.197.329.263.461z" fill="#1d2f38"/><path d="M371.483 171.351l-1.709-4.738-5.982-16.451-12.819-35.402-14.331-39.613-25.9-71.462a5.61 5.61 0 0 0-7.166-3.356L154.023 54.616a5.62 5.62 0 0 0-3.352 7.172l36.681 101.27.592 1.711 38.522 17.438 10.847 4.935 1.775.79 45.819 20.794 1.775-.658 30.042-10.924 45.359-16.45 6.113-2.238c2.827-.987 4.339-4.211 3.287-7.106z" fill="#c4c4c4"/><g fill="#fff"><path d="M308.769 86.991a8.24 8.24 0 0 0-10.518-4.935l-59.163 21.452-28.596 10.397c-4.273 1.513-6.443 6.251-4.931 10.528s6.245 6.449 10.518 4.935l22.943-8.357 64.817-23.491c4.273-1.513 6.442-6.251 4.93-10.528zm10.387 28.756a8.24 8.24 0 0 0-10.518-4.935l-9.992 3.619-59.558 21.649-18.144 6.58c-4.273 1.58-6.442 6.252-4.93 10.529s6.245 6.449 10.518 4.935l12.556-4.54 75.138-27.308c.197-.066.328-.132.526-.198 3.944-1.711 5.916-6.251 4.404-10.331zm10.584 29.085a8.24 8.24 0 0 0-10.518-4.935l-28.136 10.199-21.759 7.896-30.239 10.989-7.692 2.764a8.22 8.22 0 0 0-5.324 8.818c.065.526.197 1.118.394 1.645l10.847 4.935 1.775-.658 54.89-19.938 30.831-11.187c4.273-1.513 6.443-6.251 4.931-10.528zm-61.662-86.136a8.24 8.24 0 0 0-10.518-4.935l-33.987 12.305c-4.272 1.579-6.442 6.251-4.93 10.528s6.245 6.449 10.518 4.935l10.781-3.882 7.1-2.566 16.105-5.856a8.18 8.18 0 0 0 4.931-10.528z"/></g><path d="M403.694 75.081H244.61c-1.907 0-3.682.987-4.734 2.566-.591.921-.854 1.908-.854 3.027v107.259l45.819 20.794 6.442 2.961 10.19 4.606c1.183.526 2.563.526 3.812 0l10.19-4.606 31.882-14.477 29.714-13.49 32.145-14.608V80.674c.066-3.093-2.432-5.593-5.522-5.593z" fill="#17a550"/><g fill="#fff"><path d="M370.826 150.096h-93.348c-4.404 0-8.02 3.488-8.217 7.897v.329c0 4.54 3.681 8.225 8.217 8.225h93.348c4.536 0 8.217-3.685 8.217-8.225s-3.681-8.226-8.217-8.226zm5.324 32.573c-1.512-1.251-3.352-1.974-5.324-1.974h-93.348c-4.536 0-8.217 3.685-8.217 8.225s3.681 8.225 8.217 8.225h69.945l29.713-13.489c-.262-.329-.591-.658-.986-.987zm-84.801 28.953l10.189 4.606c1.184.526 2.564.526 3.813 0l10.189-4.606h-24.191zm58.638-96.599c-1.183-3.224-4.273-5.396-7.691-5.396H306.14c-3.221 0-6.179 1.909-7.494 4.804a8.63 8.63 0 0 0-.723 3.422c0 4.54 3.681 8.225 8.217 8.225h36.156c4.535 0 8.217-3.685 8.217-8.225-.066-.921-.197-1.908-.526-2.83z"/></g><g fill="#1d2f38"><path d="M344.202 197.145l-31.883 14.477-7.56 3.422a3.22 3.22 0 0 1-2.695 0l-7.56-3.422h-3.221l10.19 4.606c1.183.526 2.563.526 3.812 0l10.19-4.606 31.882-14.477h-3.155zm0 0l-31.883 14.477-7.56 3.422a3.22 3.22 0 0 1-2.695 0l-7.56-3.422h-3.221l10.19 4.606c1.183.526 2.563.526 3.812 0l10.19-4.606 31.882-14.477h-3.155zm0 0l-31.883 14.477-7.56 3.422a3.22 3.22 0 0 1-2.695 0l-7.56-3.422h-3.221l10.19 4.606c1.183.526 2.563.526 3.812 0l10.19-4.606 31.882-14.477h-3.155zm107.152-45.272c-.263-.263-.526-.461-.789-.658-1.314-.856-2.958-.987-4.404-.329l-69.945 31.717-31.948 14.476-31.883 14.477-7.56 3.422c-.854.395-1.841.395-2.695 0l-7.56-3.422-7.888-3.553-47.594-21.584-12.951-5.922-38.785-17.438-26.689-12.107c-.263-.132-.526-.198-.855-.264-.657-.131-1.315-.197-1.972-.065-2.169.46-3.681 2.303-3.681 4.54v165.231c0 2.566 2.037 4.606 4.601 4.606h289.246c2.563 0 4.601-2.04 4.601-4.606V155.097c.066-1.184-.46-2.369-1.249-3.224zm0 168.521c0 1.842-1.446 3.29-3.287 3.29H158.822c-1.841 0-3.287-1.448-3.287-3.29V155.097a3.32 3.32 0 0 1 1.512-2.763c.329-.198.657-.329 1.052-.461.131 0 .197-.066.329-.066h.394c.46 0 .92.132 1.38.329l27.807 12.634 38.523 17.438 10.846 4.935 1.775.79 45.819 20.794 6.443 2.961 10.189 4.606c1.183.526 2.564.526 3.813 0l10.189-4.606 31.883-14.477 29.713-13.49 69.551-31.519c.986-.461 2.169-.395 3.155.263.066 0 .131.066.131.132.066.066.132.066.132.131.789.593 1.183 1.58 1.183 2.567v165.099zM344.202 197.145l-31.883 14.477-7.56 3.422a3.22 3.22 0 0 1-2.695 0l-7.56-3.422h-3.221l10.19 4.606c1.183.526 2.563.526 3.812 0l10.19-4.606 31.882-14.477h-3.155zm0 0l-31.883 14.477-7.56 3.422a3.22 3.22 0 0 1-2.695 0l-7.56-3.422h-3.221l10.19 4.606c1.183.526 2.563.526 3.812 0l10.19-4.606 31.882-14.477h-3.155zm-106.889-10.002l1.775.79v-1.448l-1.775.658zm106.889 10.002l-31.883 14.477-7.56 3.422a3.22 3.22 0 0 1-2.695 0l-7.56-3.422h-3.221l10.19 4.606c1.183.526 2.563.526 3.812 0l10.19-4.606 31.882-14.477h-3.155zM115.369 325H41.086a.658.658 0 1 1 0-1.316h74.283a.658.658 0 1 1 0 1.316zm-41.48-212.148c-3.484-1.777-4.864-5.988-3.09-9.476.789-1.579 2.104-2.764 3.747-3.356 4.865-1.908 10.321 1.974 15.448.856 5.062-1.119 8.02-7.173 6.837-12.24s-5.654-8.883-10.518-10.726c-6.442-2.435-13.673-1.777-19.524 1.777-5.851 3.619-9.532 9.936-9.795 16.846-.132 6.909 3.418 13.423 9.335 16.977 1.315.724 2.827 1.382 4.273.987 1.118-.329 2.235-.921 3.287-1.645z"/><path d="M68.63 79.293c-4.273-5.725-10.123-10.397-16.829-12.7s-14.462-2.106-20.773 1.119-11.044 9.805-11.57 16.911c-.789 11.844 9.335 21.912 10.321 33.757 1.118 12.503-8.151 23.492-20.642 24.611-3.09.263-6.245-.066-9.138-1.053 5.128 4.211 11.833 6.119 18.407 5.264 6.574-.987 12.424-4.869 15.777-10.66 2.301-3.948 3.221-8.554 3.55-13.095.592-7.238-.197-14.476-2.301-21.386-1.118-3.751-2.695-7.633-1.972-11.515.855-4.146 4.076-7.37 8.151-8.225 3.287-.592 6.574.395 9.663 1.513s6.245 2.501 9.532 2.566 6.902-1.448 8.217-4.475l-.395-2.632z"/></g></g><defs><clipPath id="A"><path fill="#fff" d="M0 0h500v325H0z"/></clipPath></defs></svg>