<svg xmlns="http://www.w3.org/2000/svg" width="1150" height="425" fill="none" xmlns:v="https://vecta.io/nano"><path d="M0 10C0 4.477 4.477 0 10 0h1130c5.52 0 10 4.477 10 10v405c0 5.523-4.48 10-10 10H10a10 10 0 0 1-10-10V10z" fill="#e3ebf1"/><g fill="#fff"><path d="M507.909 370.43h-.115c-2.323-.026-4.163-.74-4.094-1.598l1.541-20.341c.069-.858 1.909-1.555 4.324-1.513 2.323.026 4.163.74 4.094 1.598l-1.541 20.341c-.069.841-1.932 1.513-4.209 1.513zM374.44 203.864c-1.932 0-3.68-.493-4.117-1.224l-4.025-6.877c-.483-.841.943-1.666 3.22-1.844s4.508.348 4.991 1.19l4.025 6.876c.483.842-.943 1.666-3.22 1.845l-.897.034h.023zM227.079 389.988c-1.725 0-3.358-.399-3.956-1.037l-6.371-6.621c-.782-.808.368-1.7 2.553-1.989s4.6.136 5.382.943l6.371 6.622c.782.807-.368 1.7-2.553 1.989-.46.059-.943.093-1.403.093h-.023zm497.237-99.993a11.3 11.3 0 0 1-1.311-.077l-33.626-4.097c-2.208-.272-3.404-1.147-2.668-1.963s3.105-1.259 5.313-.987l33.626 4.097c2.208.272 3.404 1.148 2.668 1.964-.575.655-2.231 1.071-4.002 1.071v-.008zM1025.02 242.7c-.85 0-1.7-.093-2.44-.289l-14.97-3.944c-1.89-.501-2.33-1.47-.99-2.167 1.33-.697 3.98-.867 5.86-.366l14.98 3.944c1.88.493 2.32 1.471.98 2.168-.82.425-2.11.654-3.42.654zM850.517 9.495c-.759 0-1.518-.077-2.208-.23l-21.413-4.896c-1.978-.451-2.576-1.411-1.357-2.142s3.818-.952 5.796-.502l21.413 4.896c1.978.45 2.576 1.411 1.357 2.142-.805.476-2.162.739-3.588.739v-.008zM608.626 218.008c-1.541 0-3.036-.314-3.772-.858-1.035-.765-.184-1.7 1.886-2.083l15.939-2.932c2.07-.383 4.6-.068 5.635.697s.184 1.7-1.886 2.082l-15.939 2.933c-.598.11-1.242.161-1.863.161zm-456.573 15.343a10.28 10.28 0 0 1-2.185-.23c-1.978-.45-2.599-1.402-1.403-2.133l22.471-13.592c1.219-.731 3.795-.96 5.773-.518 1.978.45 2.599 1.402 1.403 2.133l-22.471 13.592c-.782.476-2.185.748-3.588.748zM157.78 9.537c-2.185 0-4.025-.629-4.186-1.445-.161-.858 1.587-1.598 3.887-1.657l63.112-1.666c2.369-.043 4.324.587 4.485 1.436.161.859-1.587 1.598-3.887 1.658l-63.112 1.666h-.299v.008zM1054.92 168.7c-1.36 0-2.69-.238-3.5-.689l-10.37-5.695c-1.29-.714-.78-1.674 1.15-2.159 1.93-.476 4.53-.289 5.84.425l10.37 5.695c1.29.714.79 1.675-1.15 2.159-.71.179-1.54.264-2.34.264zm-594.46 15.299c-1.127 0-2.231-.161-3.059-.493-1.587-.62-1.518-1.606.184-2.201l8.004-2.788c1.679-.587 4.347-.561 5.957.068 1.587.62 1.518 1.606-.184 2.201l-8.004 2.788c-.805.281-1.84.425-2.875.425h-.023zm587.24-88.527a12.64 12.64 0 0 1-.99-.043c-2.26-.204-3.66-1.046-3.11-1.879l3.34-5.108c.55-.833 2.83-1.352 5.08-1.148s3.66 1.046 3.1 1.879l-3.33 5.108c-.46.714-2.19 1.19-4.09 1.19zM277.15 285.608c-.713 0-1.426-.068-2.093-.204l-11.132-2.354c-2.024-.425-2.714-1.377-1.564-2.125s3.726-1.003 5.75-.578l11.132 2.354c2.024.425 2.714 1.377 1.564 2.125-.782.502-2.185.782-3.657.782zm850.08-87.651c-.18 0-.35 0-.53-.009l-11.13-.51c-2.3-.102-3.96-.884-3.66-1.734.28-.85 2.42-1.453 4.69-1.351l11.14.51c2.3.102 3.95.884 3.65 1.734-.25.79-2.07 1.368-4.16 1.368v-.008zm-197.547 21.411c-.805 0-1.61-.085-2.346-.264l-33.833-8.389c-1.932-.476-2.438-1.445-1.15-2.159s3.91-.901 5.842-.425l33.833 8.381c1.932.476 2.438 1.445 1.15 2.159-.805.45-2.139.688-3.496.688v.009zM535.762 11.815c-1.518 0-2.99-.306-3.749-.841-1.058-.765-.253-1.7 1.794-2.099l28.198-5.398c2.07-.391 4.6-.094 5.681.663 1.058.765.253 1.7-1.794 2.1l-28.198 5.398c-.621.119-1.288.17-1.932.17v.008zm262.775 149.932c-.529 0-1.081-.043-1.61-.119l-23.782-3.664c-2.139-.331-3.151-1.241-2.277-2.031.897-.791 3.358-1.165 5.497-.842l23.782 3.664c2.139.331 3.151 1.241 2.277 2.031-.667.595-2.231.961-3.887.961zM470.534 24.548c-1.518 0-2.99-.306-3.726-.833L442.382 6.452c-1.081-.756-.276-1.7 1.771-2.099 2.07-.399 4.6-.102 5.681.655L474.26 22.27c1.081.756.276 1.7-1.771 2.099a10.49 10.49 0 0 1-1.955.179zm65.412 178.933c-2.231 0-4.094-.654-4.209-1.487l-.69-5.704c-.092-.858 1.702-1.581 4.025-1.623 2.3-.026 4.278.629 4.393 1.487l.69 5.704c.092.858-1.702 1.581-4.025 1.623h-.184zM917.01 12.138c-.69 0-1.38-.059-2.024-.195-2.024-.417-2.783-1.36-1.656-2.108l8.05-5.406c1.127-.748 3.68-1.02 5.704-.612 2.024.417 2.783 1.36 1.656 2.108l-8.05 5.406c-.759.518-2.208.807-3.68.807zm118.01 375.726c-2.07 0-3.88-.57-4.16-1.343l-4.32-11.798c-.33-.85 1.31-1.632 3.61-1.751 2.3-.128 4.41.476 4.74 1.334l4.34 11.798c.32.85-1.31 1.632-3.61 1.751l-.57.017-.03-.008zm-173.256-49.488c-1.886 0-3.588-.467-4.071-1.173l-4.554-6.579c-.575-.833.782-1.674 3.036-1.887s4.531.29 5.106 1.123l4.554 6.578c.575.833-.782 1.675-3.036 1.887l-1.035.051zm-544.433 22.976c-.851 0-1.725-.093-2.484-.297-1.886-.502-2.277-1.479-.92-2.168l37.628-19.057c1.357-.697 4.002-.85 5.865-.34 1.886.502 2.277 1.479.92 2.168l-37.628 19.057c-.828.416-2.093.637-3.404.637h.023zM999.005 20.689c-.23 0-.483 0-.713-.026-2.3-.145-3.818-.952-3.427-1.793l5.685-12.155c.39-.841 2.55-1.419 4.85-1.266 2.3.144 3.82.952 3.43 1.793l-5.68 12.155c-.35.757-2.14 1.292-4.145 1.292zm40.935 35.845c-2 0-3.77-.527-4.14-1.275l-3.49-7.131c-.42-.842 1.1-1.649 3.38-1.802s4.46.408 4.88 1.249l3.49 7.132c.42.841-1.1 1.649-3.38 1.802l-.76.025h.02zM314.479 404.022c-2.047 0-3.818-.544-4.14-1.317l-8.717-20.681c-.368-.85 1.219-1.64 3.519-1.776 2.277-.128 4.439.45 4.807 1.3l8.717 20.681c.368.85-1.219 1.64-3.519 1.776l-.644.017h-.023zM17.917 321.139c-.69 0-1.38-.06-2.024-.196-2.024-.416-2.783-1.36-1.656-2.108l7.383-4.938c1.127-.748 3.68-1.029 5.704-.612s2.783 1.36 1.656 2.108l-7.383 4.938c-.759.51-2.208.808-3.68.808zm1085.763-18.471c-2.03 0-3.82-.544-4.14-1.3l-5.82-13.158c-.37-.85 1.17-1.649 3.47-1.785s4.46.433 4.83 1.283l5.82 13.158c.37.85-1.17 1.649-3.47 1.785l-.69.017zM685.722 157.097c-1.334 0-2.645-.23-3.45-.663-1.334-.706-.851-1.675 1.035-2.168l10.557-2.72c1.909-.493 4.531-.314 5.865.383 1.334.705.851 1.674-1.035 2.167l-10.557 2.72c-.736.187-1.564.281-2.392.281h-.023zM598.897 42.143c-1.472 0-2.898-.289-3.68-.79l-6.486-4.267c-1.127-.748-.414-1.691 1.61-2.117 2.024-.416 4.6-.153 5.727.595l6.486 4.267c1.127.748.414 1.691-1.61 2.117a10.11 10.11 0 0 1-2.047.195zM388.884 166.03c-.759 0-1.518-.076-2.208-.229-1.978-.451-2.576-1.411-1.357-2.142l18.193-10.872c1.219-.731 3.818-.952 5.796-.501s2.576 1.411 1.357 2.142l-18.193 10.871c-.805.476-2.162.74-3.588.74v-.009zm547.883 224.826c-1.932 0-3.68-.493-4.094-1.224-.506-.842.943-1.666 3.197-1.853l16.974-1.377c2.254-.187 4.508.348 5.014 1.181.506.842-.943 1.666-3.197 1.853l-16.974 1.377-.897.034-.023.009zM462.392 217.651c-.782 0-1.564-.076-2.254-.246l-15.548-3.655c-1.955-.459-2.53-1.42-1.288-2.142s3.841-.935 5.796-.476l15.548 3.655c1.955.459 2.53 1.419 1.288 2.142-.805.467-2.162.722-3.542.722zm86.572 101.482c-1.84 0-3.542-.451-4.048-1.148-.621-.824.713-1.683 2.944-1.912l40.319-4.089c2.231-.229 4.554.264 5.175 1.088s-.713 1.683-2.944 1.913l-40.319 4.088-1.127.06zM28.704 176.112c-.414 0-.828-.026-1.242-.068l-12.167-1.377c-2.231-.247-3.473-1.122-2.783-1.938.69-.825 3.036-1.284 5.244-1.029l12.167 1.377c2.231.247 3.473 1.122 2.783 1.938-.552.672-2.231 1.097-4.025 1.097h.023zm517.523 75.182c-1.656 0-3.22-.365-3.887-.96l-14.697-13.15c-.897-.79.138-1.7 2.277-2.031 2.162-.332 4.6.051 5.497.841l14.697 13.15c.897.79-.138 1.7-2.277 2.031-.529.077-1.081.119-1.61.119zm411.516-85c-1.449 0-2.852-.281-3.634-.774-1.173-.739-.483-1.691 1.518-2.125l9.66-2.074c2.001-.433 4.577-.178 5.75.561s.483 1.692-1.518 2.125l-9.66 2.074c-.667.145-1.38.213-2.116.213zM852.932 42.296c-1.426 0-2.806-.264-3.611-.748l-13.869-8.466c-1.196-.731-.575-1.692 1.426-2.134 1.978-.442 4.577-.212 5.773.527l13.869 8.466c1.196.731.575 1.692-1.426 2.134-.69.153-1.426.221-2.185.221h.023zM12.282 239.938c-.161 0-.299 0-.46-.009-2.3-.093-3.979-.858-3.726-1.708l1.288-4.463c.253-.85 2.323-1.479 4.623-1.377 2.3.094 3.979.859 3.726 1.709l-1.288 4.462c-.23.799-2.047 1.386-4.186 1.386h.023zM1104.97 357.306c-2.07 0-3.89-.57-4.17-1.352-.3-.85 1.31-1.632 3.61-1.742l33.38-1.624c2.27-.11 4.41.485 4.71 1.335s-1.31 1.632-3.61 1.742l-33.37 1.624-.55.017zM296.493 215.951a10.14 10.14 0 0 1-2.3-.255l-35.144-8.449c-1.955-.468-2.507-1.428-1.242-2.151s3.864-.926 5.819-.459l35.144 8.449c1.955.468 2.507 1.428 1.242 2.151-.805.459-2.162.705-3.542.705l.023.009zm-170.798-97.027c-.506 0-1.035-.034-1.564-.111l-40.71-6.001c-2.162-.314-3.22-1.224-2.346-2.023.851-.799 3.312-1.19 5.474-.867l40.71 6.001c2.162.315 3.22 1.224 2.346 2.023-.644.612-2.231.978-3.91.978zm-104.098 26.35c-.207 0-.414 0-.621-.017-2.3-.128-3.887-.918-3.542-1.76l2.3-5.831c.345-.85 2.461-1.445 4.761-1.309 2.3.128 3.887.918 3.542 1.76l-2.3 5.831c-.299.773-2.093 1.326-4.163 1.326h.023zm206.632 267.707c-.368 0-.736-.017-1.127-.06l-23.506-2.38c-2.231-.229-3.565-1.079-2.944-1.912.621-.825 2.921-1.318 5.175-1.088l23.506 2.38c2.231.229 3.565 1.079 2.944 1.912-.506.689-2.208 1.148-4.048 1.148zm887.091 5.329c-1.5 0-2.95-.297-3.71-.816l-6.25-4.301c-1.11-.756-.33-1.7 1.7-2.108 2.05-.408 4.6-.119 5.7.629l6.26 4.301c1.1.757.32 1.7-1.7 2.108a10.22 10.22 0 0 1-1.98.187h-.02zM744.74 232.908c-1.012 0-2.047-.136-2.852-.408l-31.579-10.727c-1.702-.578-1.817-1.564-.253-2.193s4.232-.671 5.934-.093l31.579 10.727c1.702.578 1.817 1.564.253 2.193-.828.331-1.955.501-3.105.501h.023zm-446.039 88.468c-.207 0-.414 0-.644-.017-2.3-.127-3.887-.918-3.542-1.768l3.197-7.803c.345-.85 2.484-1.436 4.784-1.3 2.3.127 3.887.918 3.542 1.768l-3.197 7.803c-.322.773-2.116 1.326-4.163 1.326l.023-.009zm608.212-28.882c-2.024 0-3.818-.544-4.14-1.309-.368-.85 1.196-1.641 3.496-1.777l11.454-.671c2.3-.128 4.439.442 4.807 1.292s-1.196 1.64-3.496 1.776l-11.454.672-.667.017zM81.949 251.302c-.943 0-1.886-.119-2.668-.357-1.794-.544-2.047-1.521-.575-2.184l9.062-4.08c1.472-.663 4.117-.757 5.911-.213s2.047 1.522.575 2.185l-9.062 4.08c-.828.374-2.047.569-3.243.569z"/><path d="M1119.02 108.197h-.44l-13.61-.536c-2.3-.093-3.98-.858-3.75-1.708.25-.85 2.27-1.471 4.62-1.386l13.62.536c2.3.093 3.97.858 3.74 1.708-.23.799-2.04 1.394-4.18 1.394v-.008zm-360.365-95.6c-1.541 0-3.036-.314-3.772-.867l-8.211-6.12c-1.035-.765-.184-1.7 1.909-2.082s4.6-.068 5.635.706l8.211 6.12c1.035.765.184 1.7-1.909 2.082a10.42 10.42 0 0 1-1.863.162zM158.194 85.145c-.414 0-.828-.025-1.219-.068l-46.621-5.261c-2.231-.255-3.473-1.122-2.806-1.938.69-.825 3.036-1.283 5.244-1.037l46.621 5.261c2.231.255 3.473 1.122 2.806 1.938-.552.671-2.231 1.105-4.025 1.105zm945.626 69.266c-.44 0-.9-.025-1.34-.085-2.21-.272-3.38-1.156-2.64-1.972l9.59-10.574c.73-.816 3.13-1.249 5.33-.977 2.21.272 3.38 1.156 2.65 1.972l-9.59 10.574c-.6.654-2.23 1.062-3.98 1.062h-.02zm-54.68 269.085c-.78 0-1.56-.077-2.25-.247-1.95-.459-2.53-1.419-1.29-2.142l13.89-8.066c1.25-.723 3.85-.944 5.8-.476 1.96.459 2.53 1.419 1.29 2.142l-13.89 8.066c-.81.468-2.17.723-3.55.723zm-440.721-74.732c-1.173 0-2.369-.187-3.197-.544l-16.813-7.234c-1.518-.654-1.311-1.632.437-2.193 1.771-.561 4.416-.484 5.934.162l16.813 7.233c1.518.655 1.311 1.632-.437 2.193-.805.255-1.771.374-2.737.374v.009zM33.718 205.836c-2.093 0-3.91-.578-4.163-1.368-.276-.85 1.357-1.624 3.657-1.734l52.578-2.363c2.277-.102 4.393.501 4.692 1.351.276.85-1.357 1.624-3.657 1.734l-52.578 2.363-.506.009-.023.008zm782.184-74.979c-1.978 0-3.749-.518-4.14-1.266l-6.21-12.334c-.437-.841 1.081-1.657 3.358-1.81 2.277-.162 4.485.399 4.899 1.241l6.21 12.333c.437.842-1.081 1.658-3.358 1.811l-.782.025h.023zM379.063 285.668c-.989 0-1.978-.127-2.76-.382l-29.969-9.699c-1.748-.569-1.932-1.547-.391-2.193s4.186-.714 5.934-.144l29.969 9.698c1.748.57 1.932 1.547.391 2.193-.828.349-2.001.527-3.174.527zm475.364 92.233c-.575 0-1.15-.042-1.725-.136-2.116-.348-3.059-1.275-2.116-2.057l14.467-11.908c.943-.782 3.427-1.139 5.566-.782 2.116.348 3.059 1.275 2.116 2.057l-14.467 11.908c-.69.578-2.231.918-3.841.918zM670.381 86.479c-1.817 0-3.496-.442-4.048-1.122l-16.054-20.519c-.644-.825.644-1.683 2.875-1.921s4.554.238 5.198 1.063l16.054 20.519c.644.824-.644 1.683-2.875 1.921a10.84 10.84 0 0 1-1.173.059h.023zM272.435 254.618c-1.288 0-2.553-.213-3.381-.621l-25.093-12.393c-1.38-.688-1.012-1.657.851-2.176s4.508-.374 5.888.315l25.093 12.393c1.38.688 1.012 1.657-.851 2.176-.759.212-1.633.306-2.507.306zM16.399 111.622c-2.254 0-4.117-.655-4.209-1.488l-1.656-15.172c-.092-.859 1.702-1.581 4.025-1.615 2.254-.026 4.278.629 4.37 1.487l1.679 15.173c.092.858-1.702 1.581-4.025 1.615h-.161-.023zm743.774 152.592c-1.012 0-2.024-.136-2.829-.408-1.725-.578-1.84-1.564-.276-2.193l9.545-3.868c1.564-.637 4.232-.68 5.934-.102 1.725.578 1.84 1.564.276 2.193l-9.545 3.868c-.828.34-1.978.51-3.105.51zm-60.099-68.068a10.83 10.83 0 0 1-1.38-.085c-2.185-.281-3.358-1.173-2.576-1.981l13.248-13.982c.759-.808 3.151-1.233 5.359-.952 2.185.28 3.358 1.173 2.576 1.98l-13.248 13.983c-.598.637-2.231 1.045-3.979 1.045v-.008zm258.612 64.626c-.529 0-1.058-.034-1.587-.111l-49.473-7.42c-2.162-.323-3.197-1.233-2.323-2.023.874-.799 3.312-1.182 5.474-.859l49.473 7.421c2.162.323 3.197 1.232 2.323 2.023-.667.603-2.231.969-3.91.969h.023zm-79.971-80.802c-2.07 0-3.864-.569-4.163-1.343l-3.818-10.361c-.322-.85 1.288-1.632 3.611-1.751 2.277-.119 4.416.476 4.738 1.334l3.818 10.362c.322.85-1.288 1.632-3.611 1.751l-.575.017v-.009zM232.76 129.956c-.575 0-1.15-.042-1.725-.136l-43.102-7.131c-2.116-.349-3.059-1.267-2.116-2.057.943-.782 3.45-1.131 5.566-.782l43.102 7.131c2.116.349 3.059 1.267 2.116 2.057-.69.578-2.231.918-3.841.918zm253.46 175.415c-.276 0-.552-.008-.828-.034-2.277-.17-3.749-.986-3.289-1.827l10.143-18.556c.46-.841 2.668-1.385 4.945-1.215s3.749.986 3.289 1.827l-10.143 18.556c-.414.739-2.162 1.249-4.117 1.249zm18.17-252.739c-1.702 0-3.312-.391-3.956-1.02-.805-.807.322-1.7 2.507-1.997l18.814-2.55c2.185-.297 4.6.119 5.405.927s-.322 1.7-2.507 1.997l-18.814 2.55a10.37 10.37 0 0 1-1.449.093zm-1.449 100.946c-2.3 0-4.186-.689-4.209-1.539 0-.858 1.84-1.564 4.163-1.564l46.828-.144c2.484-.043 4.232.68 4.232 1.538s-1.84 1.564-4.163 1.564l-46.828.145h-.046.023zm496.777 143.726a10.97 10.97 0 0 1-1.173-.059c-2.231-.238-3.519-1.105-2.875-1.93l16.35-20.842c.65-.824 2.99-1.3 5.22-1.062s3.52 1.105 2.88 1.929l-16.35 20.842c-.53.68-2.21 1.122-4.052 1.122zm-57.339 60.894c-1.679 0-3.266-.374-3.91-.986-.851-.799.207-1.7 2.369-2.014l27.462-3.995c2.162-.315 4.6.076 5.451.875s-.207 1.7-2.369 2.015l-27.462 3.995a10.51 10.51 0 0 1-1.541.11zM768.453 95.948c-1.357 0-2.668-.238-3.496-.68l-8.234-4.496c-1.311-.714-.805-1.674 1.127-2.159s4.531-.297 5.842.416l8.234 4.497c1.311.714.805 1.674-1.127 2.159a9.93 9.93 0 0 1-2.346.264zm-320.781 33.354c-1.472 0-2.898-.281-3.657-.791l-23.713-15.546c-1.15-.748-.414-1.7 1.587-2.117 2.024-.425 4.577-.153 5.727.587l23.713 15.546c1.15.748.414 1.7-1.587 2.117a10.17 10.17 0 0 1-2.07.204zm221.122 127.169c-1.058 0-2.116-.145-2.921-.434l-26.657-9.528c-1.679-.595-1.702-1.581-.092-2.202s4.278-.637 5.957-.034l26.657 9.528c1.679.595 1.702 1.581.092 2.202-.828.314-1.932.476-3.013.476l-.023-.008zm110.63 58.769c-1.196 0-2.392-.187-3.22-.561-1.495-.663-1.242-1.641.529-2.193l37.72-11.645c1.771-.553 4.439-.459 5.934.195 1.495.663 1.242 1.641-.529 2.193l-37.72 11.645c-.782.247-1.748.366-2.691.366h-.023zm-536.475 39.474c-.253 0-.506 0-.782-.026l-18.101-1.258c-2.277-.161-3.795-.969-3.358-1.81s2.645-1.403 4.899-1.241l18.101 1.258c2.277.161 3.795.969 3.358 1.81-.391.748-2.139 1.267-4.14 1.267h.023zm202.262 36.583c-.667 0-1.357-.059-2.001-.187l-51.704-10.361c-2.047-.408-2.806-1.352-1.702-2.108s3.657-1.037 5.704-.629l51.704 10.361c2.047.408 2.806 1.352 1.702 2.108-.759.519-2.208.816-3.703.816zm280.071-264.435c-.943 0-1.909-.119-2.691-.357l-25.3-7.786c-1.794-.552-2.024-1.53-.552-2.193 1.495-.663 4.14-.748 5.934-.204l25.3 7.786c1.794.553 2.024 1.53.552 2.193-.828.366-2.024.561-3.243.561zM226.366 63.376c-2.162 0-3.979-.604-4.186-1.411l-5.842-23.383c-.207-.858 1.495-1.615 3.795-1.692 2.323-.085 4.37.553 4.577 1.403l5.842 23.383c.207.858-1.495 1.615-3.795 1.692h-.391v.008zm369.058 314.917c-.414 0-.851-.026-1.265-.077l-10.143-1.198c-2.208-.264-3.427-1.131-2.737-1.955.713-.816 3.082-1.267 5.29-1.012l10.143 1.19c2.208.264 3.427 1.131 2.737 1.955-.575.663-2.231 1.088-4.002 1.088l-.023.009zM535.44 120.479c-.989 0-2.001-.127-2.806-.399l-8.671-2.873c-1.725-.578-1.863-1.556-.322-2.193s4.209-.697 5.934-.119l8.671 2.873c1.725.578 1.863 1.555.322 2.193-.828.34-1.978.518-3.128.518zm305.923 118.158c-1.357 0-2.668-.238-3.496-.688l-15.387-8.432c-1.288-.714-.782-1.675 1.127-2.159 1.932-.476 4.531-.289 5.842.416l15.387 8.432c1.288.714.782 1.675-1.127 2.159-.713.179-1.541.264-2.346.264v.008zM1106.21 68.672h-.25c-2.33-.051-4.1-.782-3.96-1.641l3.36-21.165c.13-.859 2.16-1.522 4.44-1.462 2.32.051 4.09.782 3.95 1.641l-3.36 21.165c-.13.825-1.97 1.462-4.18 1.462zM675.027 34.417c-2.024 0-3.818-.544-4.14-1.3-.368-.85 1.173-1.649 3.473-1.785l36.064-2.176c2.277-.136 4.462.433 4.83 1.284s-1.173 1.649-3.473 1.785L675.717 34.4l-.69.017zm109.296 317.951c-.621 0-1.242-.051-1.84-.162l-41.469-7.514c-2.093-.374-2.944-1.309-1.932-2.082s3.542-1.088 5.635-.714l41.469 7.514c2.093.374 2.944 1.309 1.932 2.082-.736.553-2.231.867-3.772.867l-.023.009zM617.619 183.625c-1.173 0-2.346-.178-3.174-.535l-22.931-9.75c-1.518-.646-1.334-1.632.414-2.193s4.416-.493 5.934.153l22.931 9.75c1.518.646 1.334 1.632-.414 2.193-.805.255-1.771.382-2.76.382zm224.871 91.061c-.345 0-.69-.017-1.035-.051-2.254-.212-3.611-1.054-3.036-1.887l3.381-4.904c.575-.833 2.852-1.343 5.106-1.122 2.254.212 3.611 1.054 3.036 1.887l-3.381 4.904c-.483.706-2.185 1.173-4.071 1.173zM218.5 325.312c-1.932 0-3.68-.493-4.094-1.224l-12.765-21.386c-.506-.841.943-1.666 3.197-1.853s4.508.349 5.014 1.182l12.765 21.386c.506.841-.943 1.666-3.197 1.853l-.92.034v.008zm309.373 84.558c-1.104 0-2.231-.162-3.059-.485-1.587-.62-1.518-1.606.161-2.201l24.564-8.585c1.679-.587 4.347-.561 5.957.059 1.587.621 1.518 1.607-.161 2.202l-24.564 8.585c-.805.28-1.863.425-2.898.425zM197.892 190.774c-1.127 0-2.231-.161-3.059-.493l-32.131-12.673c-1.587-.629-1.495-1.607.184-2.202 1.702-.586 4.37-.552 5.957.068l32.131 12.674c1.587.629 1.495 1.606-.184 2.201-.805.281-1.84.416-2.875.416l-.023.009zM952.43 321.529h-.345l-31.119-.969c-2.323-.068-4.025-.824-3.841-1.683s2.208-1.496 4.554-1.419l31.119.969c2.323.068 4.025.824 3.841 1.683-.184.807-2.024 1.428-4.186 1.428l-.023-.009zm25.461-123.649c-1.84 0-3.542-.451-4.048-1.148-.621-.833.713-1.683 2.944-1.912l30.543-3.077c2.26-.23 4.56.263 5.18 1.088.62.833-.72 1.683-2.95 1.912l-30.542 3.077-1.104.06h-.023zm-.644 214.395c-1.495 0-2.967-.297-3.726-.824-1.081-.757-.322-1.7 1.748-2.1l14.72-2.898c2.047-.408 4.6-.111 5.681.646s.322 1.7-1.748 2.099l-14.72 2.899c-.621.127-1.311.178-1.978.178h.023zm70.773-277.346c-.6 0-1.22-.051-1.8-.153l-59.198-10.421c-2.093-.365-2.99-1.3-2.001-2.074s3.519-1.105 5.612-.739l59.207 10.421c2.09.365 2.99 1.3 2 2.074-.72.561-2.23.884-3.8.884l-.02.008zM764.474 390.286c-.897 0-1.794-.102-2.553-.314-1.84-.519-2.208-1.496-.805-2.176l15.571-7.557c1.403-.68 4.048-.816 5.888-.297s2.208 1.496.805 2.176l-15.571 7.556c-.828.4-2.07.612-3.358.612h.023zM963.125 92.038h-.391c-2.323-.076-4.025-.833-3.795-1.692l2.622-10.514c.207-.858 2.277-1.487 4.577-1.403 2.323.077 4.025.833 3.795 1.692l-2.622 10.514c-.207.808-2.024 1.411-4.186 1.411v-.008zm-87.676-3.213c-1.196 0-2.392-.187-3.22-.552l-33.396-14.696c-1.495-.654-1.265-1.641.506-2.193s4.439-.468 5.934.187l33.396 14.697c1.495.654 1.265 1.64-.506 2.193-.782.246-1.748.365-2.714.365zM96.002 158.321c-1.472 0-2.921-.289-3.68-.799-1.127-.748-.391-1.7 1.633-2.117l34.477-7.072c2.024-.416 4.6-.144 5.727.604s.391 1.7-1.633 2.116l-34.477 7.072a10.11 10.11 0 0 1-2.047.196zM366.919 13.362c-2.024 0-3.795-.536-4.14-1.3l-3.772-8.39c-.391-.85 1.173-1.649 3.45-1.785 2.277-.145 4.462.433 4.83 1.275l3.772 8.389c.391.85-1.173 1.649-3.45 1.785l-.69.017v.008zM183.632 271.439c-1.311 0-2.599-.23-3.427-.646l-13.915-7.183c-1.357-.697-.92-1.666.966-2.167s4.508-.34 5.865.357l13.915 7.182c1.357.697.92 1.666-.966 2.168-.736.195-1.587.289-2.438.289zm946.588 119.739c-2.05 0-3.84-.552-4.14-1.317l-2.92-7.038c-.35-.85 1.22-1.641 3.52-1.768 2.27-.128 4.44.45 4.78 1.3l2.92 7.038c.35.85-1.22 1.641-3.52 1.768l-.64.017zM512.164 89.429c-1.679 0-3.243-.374-3.91-.978-.851-.799.184-1.7 2.346-2.023l55.89-8.219c2.162-.314 4.6.068 5.474.867.851.799-.184 1.7-2.346 2.023l-55.89 8.219a10.53 10.53 0 0 1-1.564.111zm184.943 281.213a10.19 10.19 0 0 1-1.702-.136l-30.199-4.93c-2.116-.348-3.082-1.266-2.139-2.048s3.427-1.139 5.543-.791l30.199 4.93c2.116.349 3.082 1.267 2.162 2.049-.69.578-2.231.926-3.841.926h-.023zm337.783-32.614c-.65 0-1.29-.051-1.91-.17-2.07-.391-2.9-1.326-1.84-2.091l28.54-20.783c1.06-.765 3.59-1.071 5.66-.68s2.89 1.326 1.84 2.091l-28.55 20.783c-.73.544-2.23.85-3.74.85zm-648.904 76.407c-2.208 0-4.071-.638-4.186-1.462-.138-.859 1.633-1.59 3.956-1.641l50.623-1.113c2.323-.06 4.324.603 4.439 1.462.138.858-1.633 1.589-3.956 1.64l-50.623 1.114h-.253zM304.267 73.644c-1.794 0-3.473-.433-4.025-1.105-.667-.825.575-1.692 2.806-1.938l47.978-5.364c2.231-.246 4.577.213 5.244 1.037s-.575 1.692-2.806 1.938l-47.978 5.364-1.219.068zM23.897 33.941c-2.001 0-3.772-.527-4.14-1.284L8.326 8.883c-.414-.841 1.127-1.649 3.404-1.802 2.3-.153 4.462.416 4.876 1.258l11.431 23.774c.414.842-1.127 1.649-3.404 1.802l-.736.026zm419.451 231.046c-2.024 0-3.818-.544-4.14-1.309l-9.177-21.156c-.368-.85 1.196-1.649 3.496-1.777 2.277-.136 4.462.442 4.807 1.292l9.177 21.157c.368.85-1.196 1.649-3.496 1.785l-.667.017v-.009zm365.079-65.815a11.3 11.3 0 0 1-1.311-.076l-15.916-1.921c-2.208-.264-3.404-1.148-2.691-1.964s3.082-1.266 5.313-.994l15.916 1.921c2.208.263 3.404 1.147 2.691 1.963-.575.655-2.231 1.071-4.002 1.071zm-471.155-92.99c-1.564 0-3.059-.323-3.795-.875-1.012-.774-.138-1.7 1.955-2.074l19.274-3.451c2.093-.374 4.6-.051 5.612.722s.138 1.7-1.955 2.074l-19.274 3.451c-.598.102-1.219.153-1.84.153h.023zm74.014-60.248c-.989 0-1.978-.128-2.783-.383l-8.28-2.686c-1.748-.569-1.909-1.547-.391-2.193 1.541-.646 4.186-.706 5.934-.145l8.28 2.686c1.748.569 1.909 1.547.391 2.193-.828.349-2.001.527-3.174.527h.023zm-4.462 268.217c-.253 0-.506 0-.759-.025l-21.712-1.471c-2.277-.153-3.795-.969-3.381-1.81s2.599-1.403 4.899-1.25l21.712 1.471c2.277.153 3.795.969 3.381 1.81-.368.748-2.139 1.275-4.14 1.275zm474.03 96.085c-2.208 0-4.071-.638-4.186-1.462l-2.392-14.807c-.138-.859 1.633-1.59 3.956-1.641 2.323-.068 4.301.604 4.439 1.462l2.392 14.807c.138.859-1.633 1.59-3.956 1.641h-.253zM37.375 373.651c-1.771 0-3.404-.408-3.979-1.062l-17.457-19.27c-.736-.816.46-1.691 2.645-1.963s4.577.17 5.313.977l17.457 19.27c.736.816-.46 1.691-2.645 1.963a11.71 11.71 0 0 1-1.334.085zm92.897-70.864c-1.035 0-2.093-.145-2.898-.425l-46.736-16.405c-1.679-.595-1.748-1.573-.161-2.202 1.61-.62 4.255-.646 5.957-.059l46.736 16.405c1.679.595 1.748 1.572.161 2.201-.828.323-1.932.485-3.059.485zM646.001 7.778c-1.426 0-2.829-.272-3.611-.756-1.196-.739-.529-1.691 1.472-2.133l14.835-3.255c2.001-.442 4.577-.195 5.773.544s.529 1.692-1.472 2.133l-14.835 3.256a10.28 10.28 0 0 1-2.139.221l-.023-.009zM107.824 47.736c-2.001 0-3.772-.527-4.14-1.284-.414-.841 1.127-1.649 3.404-1.802l32.821-2.167c2.323-.153 4.462.408 4.876 1.258.414.841-1.104 1.649-3.404 1.802L108.56 47.71l-.736.026zm591.583 364.965c-2.07 0-3.887-.57-4.163-1.343l-7.268-19.737c-.322-.85 1.288-1.632 3.611-1.751s4.416.476 4.738 1.334l7.268 19.737c.322.85-1.288 1.632-3.611 1.751l-.575.017v-.008zM92.805 12.248c-1.449 0-2.852-.272-3.634-.765l-9.66-6.077c-1.173-.739-.506-1.691 1.495-2.125s4.577-.187 5.75.553l9.66 6.078c1.173.739.506 1.691-1.495 2.125-.667.145-1.403.213-2.116.213zM138.115 394c-1.955 0-3.726-.51-4.117-1.249l-9.913-18.105c-.46-.842 1.012-1.658 3.289-1.828 2.3-.17 4.485.374 4.945 1.216l9.913 18.105c.46.841-1.012 1.657-3.289 1.827l-.828.034zm289.846-44.029c-.621 0-1.265-.051-1.863-.162-2.07-.382-2.921-1.317-1.886-2.082l9.131-6.766c1.035-.765 3.565-1.08 5.635-.697s2.921 1.317 1.886 2.082l-9.131 6.766c-.736.544-2.231.859-3.772.859zm204.907-206.406c-1.173 0-2.323-.178-3.151-.527l-17.388-7.301c-1.541-.646-1.357-1.624.391-2.193s4.393-.502 5.934.144l17.388 7.302c1.541.646 1.357 1.623-.391 2.193-.805.263-1.794.391-2.783.391v-.009zm-15.341-33.447c-1.426 0-2.806-.264-3.588-.748l-7.245-4.378c-1.219-.731-.598-1.691 1.403-2.133 1.978-.451 4.577-.221 5.773.518l7.245 4.378c1.219.731.598 1.691-1.403 2.133a10.28 10.28 0 0 1-2.185.23zm337.709-60.223c-.184 0-.368 0-.552-.017L920 48.178c-2.3-.111-3.933-.892-3.611-1.742.299-.85 2.438-1.453 4.715-1.334l34.684 1.7c2.3.111 3.933.892 3.611 1.742-.276.782-2.093 1.352-4.163 1.352zm-638.94-11.968c-1.61 0-3.151-.34-3.841-.926l-25.944-21.539c-.943-.782 0-1.7 2.139-2.048 2.116-.348 4.6 0 5.543.79l25.944 21.539c.943.782 0 1.7-2.139 2.048a10.19 10.19 0 0 1-1.702.136zM18.032 283.382c-2.162 0-4.002-.613-4.186-1.429l-2.576-11.857c-.184-.859 1.541-1.607 3.864-1.675 2.323-.085 4.347.57 4.531 1.428l2.576 11.858c.184.858-1.541 1.607-3.864 1.675h-.345zm310.385-138.006c-1.518 0-2.99-.306-3.726-.833l-17.388-12.3c-1.081-.756-.276-1.7 1.771-2.099s4.6-.102 5.681.654l17.388 12.3c1.081.756.276 1.7-1.771 2.099-.621.119-1.288.179-1.932.179h-.023zm409.032-82.943c-1.334 0-2.622-.229-3.45-.663-1.334-.706-.874-1.674 1.035-2.167l45.241-11.713c1.909-.493 4.531-.323 5.865.383s.874 1.675-1.035 2.168l-45.241 11.713c-.736.187-1.587.28-2.415.28zM143.014 344.488c-.782 0-1.587-.085-2.277-.247l-43.079-10.336c-1.955-.467-2.507-1.428-1.242-2.15s3.864-.927 5.819-.459l43.079 10.336c1.955.467 2.507 1.428 1.242 2.15-.805.459-2.162.706-3.542.706zm-86.802 67.277c-.207 0-.437 0-.667-.017-2.3-.136-3.864-.926-3.496-1.776l7.59-17.876c.368-.85 2.53-1.419 4.807-1.292 2.3.136 3.864.927 3.496 1.777l-7.59 17.875c-.322.765-2.116 1.309-4.14 1.309zm301.392-169.014c-1.84 0-3.542-.45-4.048-1.139l-3.266-4.351c-.621-.825.69-1.683 2.921-1.913s4.554.255 5.175 1.079l3.266 4.352c.621.825-.69 1.683-2.921 1.913a10.13 10.13 0 0 1-1.127.059zm-132.25-84.804c-.989 0-1.978-.128-2.76-.383-1.748-.569-1.932-1.547-.391-2.193l7.199-3.043c1.518-.646 4.186-.714 5.934-.144s1.932 1.547.391 2.193l-7.199 3.043c-.828.348-2.001.527-3.174.527zM423.982 82.34c-.713 0-1.426-.068-2.093-.204-2.024-.425-2.714-1.377-1.564-2.125l15.778-10.166c1.15-.748 3.726-1.003 5.75-.578s2.714 1.377 1.564 2.125l-15.778 10.166c-.782.502-2.185.782-3.657.782zm179.584 203.209c-1.403 0-2.76-.255-3.565-.722l-13.11-7.676c-1.242-.722-.644-1.683 1.311-2.142 1.978-.459 4.577-.238 5.796.485l13.11 7.675c1.242.723.644 1.683-1.311 2.142-.69.162-1.472.238-2.231.238zM1050.64 23.996c-1.98 0-3.73-.518-4.12-1.258-.43-.841 1.04-1.657 3.32-1.828l53.77-3.884c2.28-.17 4.48.383 4.94 1.224.44.841-1.03 1.657-3.31 1.828l-53.77 3.884-.81.026-.02.008zm-747.27 154.02c-.276 0-.552-.009-.828-.026l-14.306-1.045c-2.277-.17-3.772-.986-3.312-1.828s2.668-1.394 4.945-1.224l14.306 1.046c2.277.17 3.749.986 3.312 1.827-.391.74-2.162 1.25-4.117 1.25zm-45.563-75.506c-1.426 0-2.829-.272-3.611-.757l-15.709-9.707c-1.196-.739-.552-1.692 1.449-2.134s4.577-.204 5.773.536l15.709 9.707c1.196.74.552 1.692-1.449 2.134-.667.153-1.426.221-2.162.221zM32.039 66.64a11.02 11.02 0 0 1-1.058-.051l-17.664-1.691c-2.254-.213-3.611-1.063-3.013-1.896s2.875-1.326 5.129-1.114l17.664 1.692c2.254.212 3.611 1.062 3.013 1.895-.483.697-2.208 1.165-4.071 1.165zM1107.68 259.072c-.16 0-.32 0-.48-.009l-12.98-.552c-2.3-.102-3.95-.867-3.7-1.726.28-.85 2.37-1.471 4.67-1.369l12.97.553c2.3.102 3.96.867 3.71 1.726-.26.79-2.07 1.377-4.17 1.377h-.02zm-8.46-37.222a10.65 10.65 0 0 1-1.04-.051l-19.94-1.862c-2.25-.212-3.61-1.054-3.06-1.887.58-.833 2.85-1.334 5.11-1.13l19.94 1.861c2.25.213 3.61 1.054 3.06 1.887-.49.706-2.19 1.173-4.07 1.173v.009zm-422.1 106.896c-2.116 0-3.956-.595-4.186-1.394l-4.094-14.39c-.253-.85 1.426-1.616 3.749-1.709 2.3-.085 4.37.527 4.623 1.386l4.094 14.39c.253.85-1.426 1.615-3.749 1.709h-.437v.008zM910.8 140.335c-1.886 0-3.588-.467-4.071-1.181l-14.743-21.811c-.552-.833.805-1.675 3.059-1.887 2.231-.204 4.531.297 5.106 1.13l14.743 21.811c.552.833-.805 1.675-3.059 1.887a10.37 10.37 0 0 1-1.012.043l-.023.008zM795.662 412.514h-.092l-18.032-.136c-2.323-.017-4.163-.731-4.117-1.59s1.955-1.504 4.301-1.521l18.032.136c2.323.017 4.163.731 4.117 1.589-.046.85-1.909 1.522-4.209 1.522z"/></g></svg>