<svg xmlns="http://www.w3.org/2000/svg" width="155" height="55" fill="none" xmlns:v="https://vecta.io/nano"><g clip-path="url(#A)"><path d="M41.592 9.282h9.149c.227 0 .431.184.504.46l9.735 37.309c.114.435-.143.88-.504.88h-7.801c-.236 0-.443-.199-.51-.486l-1.404-6.166c-.064-.287-.274-.486-.51-.486h-8.218c-.239 0-.446.199-.51.49l-1.366 6.159c-.064.287-.274.49-.51.49h-7.798c-.361 0-.615-.446-.504-.88l9.744-37.309c.073-.273.274-.46.504-.46h-.003zm6.479 23.025c.352 0 .606-.424.51-.855l-1.217-5.418-.719-3.735c-.128-.703-.923-.689-1.034.018l-.684 3.717-1.217 5.418c-.096.427.157.855.51.855h3.853 0z" fill="#17a550"/><path d="M37.329 24.156c-.378-1.812-.856-3.628-1.433-5.433 2.6-1.963 5.507-3.591 8.672-4.777-5.571-3.691-11.613-5.801-17.728-6.321l-.917 17.437c3.532.298 7.033 1.367 10.335 3.201l1.072-4.107h0z" fill="#ffc728"/><g fill="#1d2f38"><path d="M54.254 22.384h1.904v-.475c0-6.715 4.683-7.742 7.743-7.742 1.342 0 2.216.199 2.216.199v6.081s-.594-.158-1.249-.158c-1.063 0-2.187.354-2.187 1.698v.394h4.965v-.475c0-6.674 5.277-8.49 8.713-8.49 3.028 0 4.84 1.146 4.84 1.146l-1.31 5.963s-1.063-.788-2.717-.788c-1.342 0-2.996.751-2.996 2.251v.394h10.273v20.34h-6.526V28.461h-3.748V42.72h-6.526V28.461h-4.965V42.72h-6.526V28.461h-1.904V22.38v.004zm31.583-7.897h6.526v19.235c0 1.934.28 2.527 1.343 2.527.312 0 .655-.077.655-.077v6.597s-.967.158-2.155.158c-3.215 0-6.368-1.263-6.368-8.096V14.487h0zm10.242 7.897h6.525v20.34h-6.525v-20.34zm.061-8.571h6.4v6.004h-6.4v-6.004zm16.723 16.236h.126v-.357c0-1.304-.749-1.816-1.998-1.816-2.123 0-4.371 1.739-4.371 1.739l-1.843-5.334s2.749-2.368 7.274-2.368 7.463 2.844 7.463 8.096v12.719h-5.963v-1.223c0-.553.061-1.146.061-1.146h-.061s-1.218 2.844-4.403 2.844c-2.717 0-5.402-2.173-5.402-6.398 0-6.321 6.619-6.752 9.117-6.752v-.004zm-1.811 7.742c1.217 0 2.091-1.54 2.091-2.961v-.67h-.405c-1.436 0-2.967.593-2.967 2.133 0 .91.437 1.499 1.281 1.499h0zm11.205-8.969h-1.997v-6.081h2.155v-5.845h6.368v5.845h3.311v6.081h-3.311v4.818c0 2.331 1.468 2.608 2.406 2.608.687 0 1.124-.077 1.124-.077v6.597s-.999.158-2.435.158c-2.996 0-7.618-1.105-7.618-8.096v-6.004l-.003-.004zm19.983-6.91c5.119 0 7.681 4.188 7.681 9.477 0 .91-.125 2.527-.125 2.527h-9.74c.25 2.251 1.592 3.16 3.34 3.16 2.53 0 4.339-1.856 4.339-1.856l2.154 5.252s-2.466 2.726-7.023 2.726c-6.433 0-9.368-5.253-9.368-10.663 0-5.923 3.215-10.623 8.742-10.623h0zm1.811 7.86c-.032-1.657-.813-2.685-1.843-2.685-1.186 0-1.873 1.068-2.062 2.685h3.902.003z"/></g><g fill="#768f9c"><path d="M4.733 4.292l-.413.24c-.57.332-.819 1.185-.557 1.905l16.622 45.711c.262.721.936 1.036 1.506.705l.413-.24c.57-.332.819-1.185.557-1.905L6.24 4.996c-.262-.721-.936-1.036-1.506-.705z"/><path d="M5.013 7.913c1.556-.435 2.539-2.384 2.195-4.352S5.323.35 3.767.785 1.228 3.169 1.572 5.137s1.885 3.211 3.441 2.776z"/></g><path d="M33.04 8.704c-1.925-.545-4.857-.969-6.197-1.079l-.917 17.437c.92.077 3.64.637 4.554.821l2.563-17.176-.003-.004z" fill="#fead1c"/><path d="M27.827 24.2c-5.772-.928-11.706.158-17.131 3.286L4.575 10.494C11.992 6.221 20.058 4.545 27.97 5.44c.944.107 1.625 1.197 1.506 2.383l-1.648 16.373v.004z" fill="#ffc728"/></g><defs><clipPath id="A"><path fill="#fff" d="M0 0h155v55H0z"/></clipPath></defs></svg>